<svg xmlns="http://www.w3.org/2000/svg" width="600" height="600">
<rect width="100%" height="100%" fill="white" stroke="black"/>
<circle cx="300" cy="300" r="195" fill="black"/>
<rect x="50" y="100" width="150" height="50" fill="black"/>
<line x1="100.703" y1="275.01" x2="100" y2="300" stroke="red" stroke-width="1"/>
<line x1="97.9981" y1="250.157" x2="100.703" y2="275.01" stroke="red" stroke-width="1"/>
<line x1="116.624" y1="233.481" x2="97.9981" y2="250.157" stroke="red" stroke-width="1"/>
<line x1="115.716" y1="208.498" x2="116.624" y2="233.481" stroke="red" stroke-width="1"/>
<line x1="100.624" y1="324.992" x2="100" y2="300" stroke="red" stroke-width="1"/>
<line x1="97.6987" y1="349.821" x2="100.624" y2="324.992" stroke="red" stroke-width="1"/>
<line x1="95.5826" y1="374.731" x2="97.6987" y2="349.821" stroke="red" stroke-width="1"/>
<line x1="119.854" y1="380.724" x2="95.5826" y2="374.731" stroke="red" stroke-width="1"/>
<line x1="83.2962" y1="396.503" x2="95.5826" y2="374.731" stroke="red" stroke-width="1"/>
<line x1="67.5602" y1="415.93" x2="83.2962" y2="396.503" stroke="red" stroke-width="1"/>
<line x1="123.287" y1="184.672" x2="115.716" y2="208.498" stroke="red" stroke-width="1"/>
<line x1="145.111" y1="172.477" x2="123.287" y2="184.672" stroke="red" stroke-width="1"/>
<line x1="108.861" y1="164.253" x2="123.287" y2="184.672" stroke="red" stroke-width="1"/>
<line x1="84.2693" y1="159.756" x2="108.861" y2="164.253" stroke="red" stroke-width="1"/>
<line x1="98.1358" y1="416.623" x2="83.2962" y2="396.503" stroke="red" stroke-width="1"/>
<line x1="49.1605" y1="399.005" x2="67.5602" y2="415.93" stroke="red" stroke-width="1"/>
<line x1="66.4377" y1="177.278" x2="84.2693" y2="159.756" stroke="red" stroke-width="1"/>
<line x1="165.733" y1="158.343" x2="145.111" y2="172.477" stroke="red" stroke-width="1"/>
<line x1="57.1331" y1="438.651" x2="67.5602" y2="415.93" stroke="red" stroke-width="1"/>
<line x1="74.0586" y1="341.688" x2="97.6987" y2="349.821" stroke="red" stroke-width="1"/>
<line x1="94.5427" y1="303.084" x2="100" y2="300" stroke="red" stroke-width="1"/>
<line x1="117.001" y1="433.027" x2="98.1358" y2="416.623" stroke="red" stroke-width="1"/>
<line x1="133.53" y1="451.783" x2="117.001" y2="433.027" stroke="red" stroke-width="1"/>
<line x1="70.9037" y1="185.085" x2="66.4377" y2="177.278" stroke="red" stroke-width="1"/>
<line x1="148.221" y1="171.177" x2="145.111" y2="172.477" stroke="red" stroke-width="1"/>
<line x1="111.825" y1="464.189" x2="133.53" y2="451.783" stroke="red" stroke-width="1"/>
<line x1="108.337" y1="488.944" x2="111.825" y2="464.189" stroke="red" stroke-width="1"/>
<line x1="150.962" y1="469.704" x2="133.53" y2="451.783" stroke="red" stroke-width="1"/>
<line x1="103.4" y1="513.452" x2="108.337" y2="488.944" stroke="red" stroke-width="1"/>
<line x1="95.1999" y1="537.069" x2="103.4" y2="513.452" stroke="red" stroke-width="1"/>
<line x1="66.1004" y1="365.387" x2="74.0586" y2="341.688" stroke="red" stroke-width="1"/>
<line x1="71.4534" y1="529.252" x2="95.1999" y2="537.069" stroke="red" stroke-width="1"/>
<line x1="75.7127" y1="275.71" x2="100.703" y2="275.01" stroke="red" stroke-width="1"/>
<line x1="175.12" y1="476.137" x2="150.962" y2="469.704" stroke="red" stroke-width="1"/>
<line x1="199.974" y1="473.44" x2="175.12" y2="476.137" stroke="red" stroke-width="1"/>
<line x1="200.434" y1="484.791" x2="199.974" y2="473.44" stroke="red" stroke-width="1"/>
<line x1="65.9457" y1="390.813" x2="83.2962" y2="396.503" stroke="red" stroke-width="1"/>
<line x1="224.748" y1="490.607" x2="200.434" y2="484.791" stroke="red" stroke-width="1"/>
<line x1="205.579" y1="505.275" x2="200.434" y2="484.791" stroke="red" stroke-width="1"/>
<line x1="249.745" y1="490.991" x2="224.748" y2="490.607" stroke="red" stroke-width="1"/>
<line x1="168.526" y1="500.252" x2="175.12" y2="476.137" stroke="red" stroke-width="1"/>
<line x1="42.8623" y1="356.168" x2="66.1004" y2="365.387" stroke="red" stroke-width="1"/>
<line x1="273.947" y1="497.255" x2="249.745" y2="490.991" stroke="red" stroke-width="1"/>
<line x1="298.911" y1="495.907" x2="273.947" y2="497.255" stroke="red" stroke-width="1"/>
<line x1="323.901" y1="495.189" x2="298.911" y2="495.907" stroke="red" stroke-width="1"/>
<line x1="42.8062" y1="169.121" x2="66.4377" y2="177.278" stroke="red" stroke-width="1"/>
<line x1="97.1882" y1="296.153" x2="100" y2="300" stroke="red" stroke-width="1"/>
<line x1="348.716" y1="492.153" x2="323.901" y2="495.189" stroke="red" stroke-width="1"/>
<line x1="90.0407" y1="337.796" x2="97.6987" y2="349.821" stroke="red" stroke-width="1"/>
<line x1="88.3896" y1="375.75" x2="95.5826" y2="374.731" stroke="red" stroke-width="1"/>
<line x1="36.3913" y1="452.608" x2="57.1331" y2="438.651" stroke="red" stroke-width="1"/>
<line x1="372.451" y1="484.301" x2="348.716" y2="492.153" stroke="red" stroke-width="1"/>
<line x1="79.6195" y1="233.209" x2="97.9981" y2="250.157" stroke="red" stroke-width="1"/>
<line x1="395.165" y1="473.858" x2="372.451" y2="484.301" stroke="red" stroke-width="1"/>
<line x1="49.8088" y1="541.762" x2="71.4534" y2="529.252" stroke="red" stroke-width="1"/>
<line x1="418.534" y1="464.976" x2="395.165" y2="473.858" stroke="red" stroke-width="1"/>
<line x1="439.057" y1="479.253" x2="418.534" y2="464.976" stroke="red" stroke-width="1"/>
<line x1="322.617" y1="520.156" x2="323.901" y2="495.189" stroke="red" stroke-width="1"/>
<line x1="88.4095" y1="458.825" x2="111.825" y2="464.189" stroke="red" stroke-width="1"/>
<line x1="431.154" y1="502.971" x2="439.057" y2="479.253" stroke="red" stroke-width="1"/>
<line x1="318.282" y1="544.777" x2="322.617" y2="520.156" stroke="red" stroke-width="1"/>
<line x1="51.2443" y1="566.721" x2="49.8088" y2="541.762" stroke="red" stroke-width="1"/>
<line x1="335.837" y1="495.089" x2="323.901" y2="495.189" stroke="red" stroke-width="1"/>
<line x1="102.807" y1="386.699" x2="95.5826" y2="374.731" stroke="red" stroke-width="1"/>
<line x1="463.106" y1="486.082" x2="439.057" y2="479.253" stroke="red" stroke-width="1"/>
<line x1="90.0205" y1="341.198" x2="90.0407" y2="337.796" stroke="red" stroke-width="1"/>
<line x1="22.6285" y1="341.485" x2="42.8623" y2="356.168" stroke="red" stroke-width="1"/>
<line x1="478.553" y1="466.425" x2="463.106" y2="486.082" stroke="red" stroke-width="1"/>
<line x1="481.748" y1="441.63" x2="478.553" y2="466.425" stroke="red" stroke-width="1"/>
<line x1="50.9943" y1="416.068" x2="67.5602" y2="415.93" stroke="red" stroke-width="1"/>
<line x1="494.574" y1="420.171" x2="481.748" y2="441.63" stroke="red" stroke-width="1"/>
<line x1="68.6095" y1="457.714" x2="88.4095" y2="458.825" stroke="red" stroke-width="1"/>
<line x1="495.911" y1="395.207" x2="494.574" y2="420.171" stroke="red" stroke-width="1"/>
<line x1="486.617" y1="371.998" x2="495.911" y2="395.207" stroke="red" stroke-width="1"/>
<line x1="501.325" y1="445.337" x2="481.748" y2="441.63" stroke="red" stroke-width="1"/>
<line x1="510.157" y1="363.58" x2="486.617" y2="371.998" stroke="red" stroke-width="1"/>
<line x1="109.507" y1="443.52" x2="117.001" y2="433.027" stroke="red" stroke-width="1"/>
<line x1="199.257" y1="529.462" x2="205.579" y2="505.275" stroke="red" stroke-width="1"/>
<line x1="506.213" y1="338.893" x2="510.157" y2="363.58" stroke="red" stroke-width="1"/>
<line x1="473.449" y1="453.842" x2="478.553" y2="466.425" stroke="red" stroke-width="1"/>
<line x1="56.2512" y1="242.093" x2="79.6195" y2="233.209" stroke="red" stroke-width="1"/>
<line x1="107.297" y1="423.663" x2="98.1358" y2="416.623" stroke="red" stroke-width="1"/>
<line x1="444.987" y1="523.795" x2="431.154" y2="502.971" stroke="red" stroke-width="1"/>
<line x1="210.82" y1="540.059" x2="199.257" y2="529.462" stroke="red" stroke-width="1"/>
<line x1="468.056" y1="533.43" x2="444.987" y2="523.795" stroke="red" stroke-width="1"/>
<line x1="502.27" y1="314.206" x2="506.213" y2="338.893" stroke="red" stroke-width="1"/>
<line x1="500" y1="300" x2="502.27" y2="314.206" stroke="red" stroke-width="1"/>
<polyline fill="none" stroke="green" stroke-width="4" points="100,300 100.624,324.992 97.6987,349.821 95.5826,374.731 83.2962,396.503 98.1358,416.623 117.001,433.027 133.53,451.783 150.962,469.704 175.12,476.137 199.974,473.44 200.434,484.791 224.748,490.607 249.745,490.991 273.947,497.255 298.911,495.907 323.901,495.189 348.716,492.153 372.451,484.301 395.165,473.858 418.534,464.976 439.057,479.253 463.106,486.082 478.553,466.425 481.748,441.63 494.574,420.171 495.911,395.207 486.617,371.998 510.157,363.58 506.213,338.893 502.27,314.206 500,300 "/>
<circle cx="100" cy="300" r="8" fill="blue"/>
<circle cx="500" cy="300" r="8" fill="gold" stroke="black"/>
</svg>
